{"title":"In Time (2011) R5 PROPER LiNE DVDRip XviD 5.1-BBnRG","uid":6862408,"size":1641105055,"categoryP":"video","categoryS":"movies","magnet":"?xt=urn:btih:e336f87df83acd0becf006534e532eeb93215581&amp;dn=In+Time+%282011%29+R5+PROPER+LiNE+DVDRip+XviD+5.1-BBnRG&amp;tr=udp%3A%2F%2Ftracker.openbittorrent.com%3A80&amp;tr=udp%3A%2F%2Fopen.demonii.com%3A1337&amp;tr=udp%3A%2F%2Ftracker.coppersurfer.tk%3A6969&amp;tr=udp%3A%2F%2Fexodus.desync.com%3A6969","seeders":0,"leechers":1,"uploader":"sceneline","files":4,"time":1322948250,"description":"- &lt;a href=&quot;\nhttp://www.Speed.Cd&quot; rel=&quot;nofollow&quot; target=&quot;_NEW&quot;&gt;\nhttp://www.Speed.Cd&lt;/a&gt;      fast  and The Hottest Private Tracker on the net\n\n   signup is open now\n\nPlease Seed back to make the speed Faster!!!\n\n------------------nfo--------------------------\n-Another Fine Release Brought to you from -\n===================================================================================================\nBBBBBBBBBBBBBBBBB   BBBBBBBBBBBBBBBBB                     RRRRRRRRRRRRRRRRR           GGGGGGGGGGGGG\nB::::::::::::::::B  B::::::::::::::::B                    R::::::::::::::::R       GGG::::::::::::G\nB::::::BBBBBB:::::B B::::::BBBBBB:::::B                   R::::::RRRRRR:::::R    GG:::::::::::::::G\nBB:::::B     B:::::BBB:::::B     B:::::B                  RR:::::R     R:::::R  G:::::GGGGGGGG::::G\n  B::::B     B:::::B  B::::B     B:::::Bnnnn  nnnnnnnn      R::::R     R:::::R G:::::G       GGGGGG\n  B::::B     B:::::B  B::::B     B:::::Bn:::nn::::::::nn    R::::R     R:::::RG:::::G              \n  B::::BBBBBB:::::B   B::::BBBBBB:::::B n::::::::::::::nn   R::::RRRRRR:::::R G:::::G              \n  B:::::::::::::BB    B:::::::::::::BB  nn:::::::::::::::n  R:::::::::::::RR  G:::::G    GGGGGGGGGG\n  B::::BBBBBB:::::B   B::::BBBBBB:::::B   n:::::nnnn:::::n  R::::RRRRRR:::::R G:::::G    G::::::::G\n  B::::B     B:::::B  B::::B     B:::::B  n::::n    n::::n  R::::R     R:::::RG:::::G    GGGGG::::G\n  B::::B     B:::::B  B::::B     B:::::B  n::::n    n::::n  R::::R     R:::::RG:::::G        G::::G\n  B::::B     B:::::B  B::::B     B:::::B  n::::n    n::::n  R::::R     R:::::R G:::::G       G::::G\nBB:::::BBBBBB::::::BBB:::::BBBBBB::::::B  n::::n    n::::nRR:::::R     R:::::R  G:::::GGGGGGGG::::G\nB:::::::::::::::::B B:::::::::::::::::B   n::::n    n::::nR::::::R     R:::::R   GG:::::::::::::::G\nB::::::::::::::::B  B::::::::::::::::B    n::::n    n::::nR::::::R     R:::::R     GGG::::::GGG:::G\nBBBBBBBBBBBBBBBBB   BBBBBBBBBBBBBBBBB     nnnnnn    nnnnnnRRRRRRRR     RRRRRRR        GGGGGG   GGGG\n===================================================================================================\n                       In Time (2011) R5 PROPER LiNE DVDRip XviD-5.1 BBnRG\n===================================================================================================\n\n ___     _                    ___       __    \n| _ \\___| |___ __ _ ___ ___  |_ _|_ _  / _|___\n|   / -_) / -_) _` (_-&lt;/ -_)  | || ' \\|  _/ _ \\\n|_|_\\___|_\\___\\__,_/__/\\___| |___|_||_|_| \\___/\n===================================================================================================\nComplete name                    : In Time (2011) R5 PROPER LiNE DVDRip XviD-5.1 BBnRG .avi\nFormat                           : AVI\nFormat/Info                      : Audio Video Interleave\nFile size                        : 1.53 GiB\nDuration                         : 1h 44mn\nOverall bit rate                 : 2 089 Kbps\n\nVideo\nID                               : 0\nFormat                           : MPEG-4 Visual\nFormat profile                   : Advanced Simple@L5\nFormat settings, BVOP            : 2\nFormat settings, QPel            : No\nFormat settings, GMC             : No warppoints\nFormat settings, Matrix          : Default (H.263)\nCodec ID                         : XVID\nCodec ID/Hint                    : XviD\nDuration                         : 1h 44mn\nBit rate                         : 1 697 Kbps\nWidth                            : 720 pixels\nHeight                           : 304 pixels\nDisplay aspect ratio             : 2.35:1\nFrame rate                       : 25.000 fps\nColor space                      : YUV\nChroma subsampling               : 4:2:0\nBit depth                        : 8 bits\nScan type                        : Progressive\nCompression mode                 : Lossy\nBits/(Pixel*Frame)               : 0.310\nStream size                      : 1.24 GiB (81%)\nWriting library                  : XviD 1.2.1 (UTC 2008-12-04)\n\nAudio\nID                               : 1\nFormat                           : AC-3\nFormat/Info                      : Audio Coding 3\nMode extension                   : CM (complete main)\nCodec ID                         : 2000\nDuration                         : 1h 44mn\nBit rate mode                    : Constant\nBit rate                         : 384 Kbps\nChannel(s)                       : 6 channels\nChannel positions                : Front: L C R, Side: L R, LFE\nSampling rate                    : 48.0 KHz\nBit depth                        : 16 bits\nCompression mode                 : Lossy\nStream size                      : 288 MiB (18%)\nAlignment                        : Aligned on interleaves\nInterleave, duration             : 64 ms (1.60 video frames)\nInterleave, preload duration     : 192 ms\nTitle                            : In Time (2011) DVDRip XviD BBnRG\n\n ___     _                    ___                 _      _   _          \n| _ \\___| |___ __ _ ___ ___  |   \\ ___ ___ __ _ _(_)_ __| |_(_)___ _ _  \n|   / -_) / -_) _` (_-&lt;/ -_) | |) / -_|_-&lt;/ _| '_| | '_ \\  _| / _ \\ ' \\\n|_|_\\___|_\\___\\__,_/__/\\___| |___/\\___/__/\\__|_| |_| .__/\\__|_\\___/_||_|\n                                                   |_|                  \n===================================================================================================\n109 min  -  Action | Sci-Fi | Thriller   -  1 November 2011 (UK) \n\nIn the not-too-distant future the aging gene has been switched off. To avoid overpopulation, \ntime has become the currency and the way people pay for luxuries and necessities. The rich \ncan live forever, while the rest try to negotiate for their immortality. A poor young man \nwho comes into a fortune of time, though too late to help his mother from dying. He ends up \non the run from a police force known as 'time keepers'.\n\nIMDb Link:http://www.imdb.com/title/tt1637688/\n  ___                     _  _     _          \n / __|_ _ ___ _  _ _ __  | \\| |___| |_ ___ ___\n| (_ | '_/ _ \\ || | '_ \\ | .` / _ \\  _/ -_|_-&lt;\n \\___|_| \\___/\\_,_| .__/ |_|\\_\\___/\\__\\___/__/\n                  |_|                        \n===================================================================================================\nEncoder:   FridayToker \nSource(s): Video: DVDR-TDP (thanks) Audio: MiSTERE (thanks)\nCoverted Audio to 5.1 and synced (sweet) \n\nAnother fine release from BBnRG\n\nWe aim to bring the best \n\n  ___             _      \n / __|_ _ ___ ___| |_ ___\n| (_ | '_/ -_) -_)  _|_ /\n \\___|_| \\___\\___|\\__/__|\n===================================================================================================\nNiCkkkDoN, Hive-CM8, DiVERSiTY, ViSiON, CrEwSaDe, INF1N1TY, 3LT0N, T0XiC, *THC*, TWiZTED, BBRG, \nBHRG, PECKO, CRYS, SC0RN, DEFACED, AMiABLE, KiNGDOM, aAF, MOUMENTUM, UnKnOwN, FreaK, FLAWL3SS, \nBDK, SMSB, ViP3R, EMBER, LKRG, LTRG, MXMG, Rx, MASSiVE, TaRiQ786, Jucified, RippeR, cOOkies, \nEXViD, TDP, VoMiT, PRESTiGE &amp; to all other p2p groups out there....","torrent":{"xt":"urn:btih:e336f87df83acd0becf006534e532eeb93215581","amp;dn":"In+Time+%282011%29+R5+PROPER+LiNE+DVDRip+XviD+5.1-BBnRG","amp;tr":["udp%3A%2F%2Ftracker.openbittorrent.com%3A80","udp%3A%2F%2Fopen.demonii.com%3A1337","udp%3A%2F%2Ftracker.coppersurfer.tk%3A6969","udp%3A%2F%2Fexodus.desync.com%3A6969"],"infoHash":"e336f87df83acd0becf006534e532eeb93215581","infoHashBuffer":{"type":"Buffer","data":[227,54,248,125,248,58,205,11,236,240,6,83,78,83,46,235,147,33,85,129]},"announce":[],"urlList":[]}}